<svg width="189" height="189" viewBox="0 0 189 189" fill="none" xmlns="http://www.w3.org/2000/svg">
<path fill-rule="evenodd" clip-rule="evenodd" d="M94.5 189C146.691 189 189 146.691 189 94.5C189 42.3091 146.691 0 94.5 0C42.3091 0 0 42.3091 0 94.5C0 146.691 42.3091 189 94.5 189ZM94.5 171C136.75 171 171 136.75 171 94.5C171 52.2502 136.75 18 94.5 18C52.2502 18 18 52.2502 18 94.5C18 136.75 52.2502 171 94.5 171Z" fill="white"/>
<path d="M39 124H63L65.25 111L67.5 98C68.8517 91.9978 71.0346 86.0448 73.5 82C76.4492 77.1615 79.8591 74.838 83.5 75.5C88.4591 76.4017 89.2413 80.3477 87.5 91C85.3789 103.976 80 124 80 124H103.5C103.5 124 107.447 107.943 110 93C111.73 82.8755 113 75.5 112 70.5C111 65.5 107.5 60 101.5 58.5C95.5 57 90.5 57 86 58.5C81.5 60 71.5 69 71.5 69L72.5 58.5H51.5L46 92L39 124Z" fill="white"/>
<path d="M113.5 65.5C113.5 65.5 114.339 67.2687 114.931 69C115.252 69.9411 115.5 72.8711 115.5 73.5C115.5 75.2858 115.5 78 115.5 78C115.5 78 118.5 75.5 121 75.5C123.5 75.5 124.5 75.5 125.5 78.5C126.5 81.5 125.5 88 125.5 88L119 124H142C142 124 148 93 149 86.5C150 80 151 77 150 70.5C149 64 146 61.5 143.5 60C141 58.5 137.5 57 134 57C130.5 57 128 57 123.5 58.5C119 60 113.5 65.5 113.5 65.5Z" fill="white"/>
<path d="M39 124H63L65.25 111L67.5 98C68.8517 91.9978 71.0346 86.0448 73.5 82C76.4492 77.1615 79.8591 74.838 83.5 75.5C88.4591 76.4017 89.2413 80.3477 87.5 91C85.3789 103.976 80 124 80 124H103.5C103.5 124 107.447 107.943 110 93C111.73 82.8755 113 75.5 112 70.5C111 65.5 107.5 60 101.5 58.5C95.5 57 90.5 57 86 58.5C81.5 60 71.5 69 71.5 69L72.5 58.5H51.5L46 92L39 124Z" stroke="white"/>
<path d="M113.5 65.5C113.5 65.5 114.339 67.2687 114.931 69C115.252 69.9411 115.5 72.8711 115.5 73.5C115.5 75.2858 115.5 78 115.5 78C115.5 78 118.5 75.5 121 75.5C123.5 75.5 124.5 75.5 125.5 78.5C126.5 81.5 125.5 88 125.5 88L119 124H142C142 124 148 93 149 86.5C150 80 151 77 150 70.5C149 64 146 61.5 143.5 60C141 58.5 137.5 57 134 57C130.5 57 128 57 123.5 58.5C119 60 113.5 65.5 113.5 65.5Z" stroke="white"/>
</svg>
